<svg width="173" height="173" viewBox="0 0 173 173" fill="none" xmlns="http://www.w3.org/2000/svg">
<path opacity="0.2" d="M86.5 167.594C128.301 167.594 162.188 133.707 162.188 91.9062C162.188 50.1052 128.301 16.2188 86.5 16.2188C44.6989 16.2188 10.8125 50.1052 10.8125 91.9062C10.8125 133.707 44.6989 167.594 86.5 167.594Z" fill="#00100F"/>
<path d="M86.5 162.188C128.301 162.188 162.188 128.301 162.188 86.5C162.188 44.6989 128.301 10.8125 86.5 10.8125C44.6989 10.8125 10.8125 44.6989 10.8125 86.5C10.8125 128.301 44.6989 162.188 86.5 162.188Z" fill="#2A7FFF"/>
<g opacity="0.2">
<path d="M86.5 37.8438C74.5544 37.8438 64.875 47.5274 64.875 59.4688C64.875 71.4101 74.5544 81.0938 86.5 81.0938C98.4456 81.0938 108.125 71.4101 108.125 59.4688C108.125 47.5274 98.4456 37.8438 86.5 37.8438Z" fill="black"/>
<path d="M86.5 91.9063C48.66 91.929 48.6562 115.86 48.6562 115.86V125.591C48.6562 125.591 55.6427 140.562 86.5 140.562C117.357 140.562 124.344 125.591 124.344 125.591V115.86C124.344 115.86 124.344 91.8913 86.5076 91.9063H86.5Z" fill="black"/>
</g>
<path d="M86.5 32.4375C74.5544 32.4375 64.875 42.1212 64.875 54.0625C64.875 66.0038 74.5544 75.6875 86.5 75.6875C98.4456 75.6875 108.125 66.0038 108.125 54.0625C108.125 42.1212 98.4456 32.4375 86.5 32.4375Z" fill="white"/>
<path d="M86.5 86.5C48.66 86.5227 48.6562 110.454 48.6562 110.454V120.185C48.6562 120.185 55.6427 135.156 86.5 135.156C117.357 135.156 124.344 120.185 124.344 120.185V110.454C124.344 110.454 124.344 86.485 86.5076 86.5H86.5Z" fill="white"/>
<path opacity="0.2" d="M86.5 10.8125C66.4264 10.8125 47.175 18.7867 32.9809 32.9809C18.7867 47.175 10.8125 66.4264 10.8125 86.5C10.8291 87.5566 10.8678 88.6127 10.9286 89.6677C11.5104 70.0047 19.7249 51.3408 33.8315 37.6303C47.9381 23.9199 66.8284 16.2403 86.5 16.2188C106.017 16.2316 124.774 23.7828 138.855 37.2959C152.937 50.8089 161.255 69.2391 162.071 88.7385C162.121 87.993 162.16 87.2467 162.188 86.5C162.188 66.4264 154.213 47.175 140.019 32.9809C125.825 18.7867 106.574 10.8125 86.5 10.8125Z" fill="white"/>
</svg>
