<svg width="67" height="67" viewBox="0 0 67 67" fill="none" xmlns="http://www.w3.org/2000/svg">
<path d="M33.5 0C20.7799 0 10.4688 10.3112 10.4688 23.0312V43.9688C10.4688 56.6888 20.7799 67 33.5 67C46.2201 67 56.5312 56.6888 56.5312 43.9688V23.0312C56.5312 10.3112 46.2201 0 33.5 0ZM52.3438 43.9688C52.3438 54.36 43.8913 62.8125 33.5 62.8125C23.1087 62.8125 14.6562 54.36 14.6562 43.9688V23.0312C14.6562 12.64 23.1087 4.1875 33.5 4.1875C43.8913 4.1875 52.3438 12.64 52.3438 23.0312V43.9688ZM33.5 10.4688C30.0301 10.4688 27.2188 13.2801 27.2188 16.75V25.125C27.2188 28.5949 30.0301 31.4062 33.5 31.4062C36.9699 31.4062 39.7812 28.5949 39.7812 25.125V16.75C39.7812 13.2801 36.9699 10.4688 33.5 10.4688ZM35.5938 25.125C35.5938 26.2802 34.6552 27.2188 33.5 27.2188C32.3448 27.2188 31.4062 26.2802 31.4062 25.125V16.75C31.4062 15.5948 32.3448 14.6562 33.5 14.6562C34.6552 14.6562 35.5938 15.5948 35.5938 16.75V25.125Z" fill="white"/>
</svg>
